<?xml version="1.0" encoding="iso-8859-1"?>
<!-- Generator: Adobe Illustrator 21.0.2, SVG Export Plug-In . SVG Version: 6.00 Build 0)  -->
<svg version="1.1" xmlns="http://www.w3.org/2000/svg" xmlns:xlink="http://www.w3.org/1999/xlink" x="0px" y="0px"
	 viewBox="0 0 98 98" style="enable-background:new 0 0 98 98;" xml:space="preserve">
<g id="t_x5F_g1">
	<g>
		<g>
			<rect style="fill:#034972;" width="98" height="98"/>
		</g>
		<g>
			<polyline style="fill:#00649D;" points="72.161,53.624 87.998,41.746 76.12,41.746 80.079,29.869 68.202,35.807 66.222,21.95 
				62.263,37.787 57.314,26.967 54.344,39.767 46.426,29.869 47.914,43.248 34.549,41.746 48.406,53.624 			"/>
			<g>
				<polyline style="fill:#02314C;" points="48.406,57.583 32.569,45.705 44.446,45.705 40.487,33.828 52.365,39.767 54.344,25.91 
					58.304,41.746 63.253,30.926 66.222,43.726 74.14,33.828 72.652,47.207 86.018,45.705 72.161,57.583 				"/>
				<polyline style="fill:#034972;" points="45.766,58.325 32.651,52.585 40.487,49.56 35.209,40.794 51.045,45.177 53.685,34.95 
					58.964,46.638 65.562,38.652 69.521,48.099 80.079,40.794 78.1,49.56 87.998,52.157 77.44,58.325 				"/>
			</g>
		</g>
	</g>
</g>
<g id="Layer_1">
</g>
</svg>
