<?xml version="1.0" encoding="iso-8859-1"?>
<!-- Generator: Adobe Illustrator 21.0.2, SVG Export Plug-In . SVG Version: 6.00 Build 0)  -->
<svg version="1.1" xmlns="http://www.w3.org/2000/svg" xmlns:xlink="http://www.w3.org/1999/xlink" x="0px" y="0px"
	 viewBox="0 0 98 98" style="enable-background:new 0 0 98 98;" xml:space="preserve">
<g id="t_x5F_g2">
	<g>
		<rect style="fill:#034972;" width="98" height="98"/>
		<g>
			<polyline style="fill:#02314C;" points="46.019,35.624 61.855,23.746 49.978,23.746 53.937,11.869 42.06,17.807 40.08,3.95 
				36.121,19.787 31.172,8.967 28.202,21.767 20.284,11.869 21.772,25.248 8.406,23.746 22.264,35.624 			"/>
			<polyline style="fill:#00649D;" points="22.264,39.583 6.427,27.705 18.304,27.705 14.345,15.828 26.223,21.767 28.202,7.91 
				32.162,23.746 37.111,12.926 40.08,25.726 47.998,15.828 46.51,29.207 59.876,27.705 46.019,39.583 			"/>
			<polyline style="fill:#034972;" points="19.624,40.325 6.509,34.585 14.345,31.56 9.066,22.794 24.903,27.177 27.543,16.95 
				32.821,28.638 39.42,20.653 43.379,30.099 53.937,22.794 51.957,31.56 61.855,34.157 51.298,40.325 			"/>
		</g>
	</g>
</g>
<g id="Layer_1">
</g>
</svg>
