<?xml version="1.0" encoding="iso-8859-1"?>
<!-- Generator: Adobe Illustrator 21.0.2, SVG Export Plug-In . SVG Version: 6.00 Build 0)  -->
<svg version="1.1" xmlns="http://www.w3.org/2000/svg" xmlns:xlink="http://www.w3.org/1999/xlink" x="0px" y="0px"
	 viewBox="0 0 98 98" style="enable-background:new 0 0 98 98;" xml:space="preserve">
<g id="t_x5F_g3">
	<g>
		<rect style="fill:#034972;" width="98" height="98"/>
		<g>
			<polyline style="fill:#02314C;" points="49.019,88.624 64.855,76.746 52.978,76.746 56.937,64.869 45.06,70.807 43.08,56.95 
				39.121,72.787 34.172,61.967 31.202,74.767 23.284,64.869 24.772,78.248 11.406,76.746 25.264,88.624 			"/>
			<polyline style="fill:#00649D;" points="25.264,92.583 9.427,80.705 21.304,80.705 17.345,68.828 29.223,74.767 31.202,60.91 
				35.162,76.746 40.111,65.926 43.08,78.726 50.998,68.828 49.51,82.207 62.876,80.705 49.019,92.583 			"/>
			<polyline style="fill:#034972;" points="22.624,93.325 9.509,87.585 17.345,84.56 12.066,75.794 27.903,80.177 30.543,69.95 
				35.821,81.638 42.42,73.653 46.379,83.099 56.937,75.794 54.957,84.56 64.855,87.157 54.298,93.325 			"/>
		</g>
	</g>
</g>
<g id="Layer_1">
</g>
</svg>
