<?xml version="1.0" encoding="iso-8859-1"?>
<!-- Generator: Adobe Illustrator 21.0.2, SVG Export Plug-In . SVG Version: 6.00 Build 0)  -->
<svg version="1.1" xmlns="http://www.w3.org/2000/svg" xmlns:xlink="http://www.w3.org/1999/xlink" x="0px" y="0px"
	 viewBox="0 0 98 98" style="enable-background:new 0 0 98 98;" xml:space="preserve">
<g id="t_x5F_g4">
	<g>
		<g>
			<rect x="0" y="0" transform="matrix(-1 -4.491797e-11 4.491797e-11 -1 98 98)" style="fill:#034972;" width="98" height="98"/>
			<g>
				<polyline style="fill:#02314C;" points="43.736,39.624 59.573,27.746 47.696,27.746 51.655,15.869 39.777,21.807 37.798,7.95 
					33.838,23.787 28.889,12.967 25.92,25.767 18.002,15.869 19.49,29.248 6.124,27.746 19.981,39.624 				"/>
				<polyline style="fill:#00649D;" points="19.981,43.583 4.145,31.705 16.022,31.705 12.063,19.828 23.94,25.767 25.92,11.91 
					29.879,27.746 34.828,16.926 37.798,29.726 45.716,19.828 44.228,33.207 57.594,31.705 43.736,43.583 				"/>
				<polyline style="fill:#034972;" points="17.342,44.325 4.226,38.34 12.063,35.185 6.784,26.044 22.621,30.614 25.26,19.95 
					30.539,32.138 37.138,23.811 41.097,33.661 51.655,26.044 49.675,35.185 59.573,37.893 49.015,44.325 				"/>
			</g>
		</g>
		<g>
			<polyline style="fill:#00649D;" points="78.275,73.624 94.112,61.746 82.234,61.746 86.194,49.869 74.316,55.807 72.336,41.95 
				68.377,57.787 63.428,46.967 60.459,59.767 52.541,49.869 54.028,63.248 40.663,61.746 54.52,73.624 			"/>
			<polyline style="fill:#02314C;" points="54.52,77.583 38.683,65.705 50.561,65.705 46.602,53.828 58.479,59.767 60.459,45.91 
				64.418,61.746 69.367,50.926 72.336,63.726 80.255,53.828 78.767,67.207 92.132,65.705 78.275,77.583 			"/>
			<polyline style="fill:#034972;" points="51.881,78.325 38.765,72.585 46.602,69.56 41.323,60.794 57.16,65.177 59.799,54.95 
				65.078,66.638 71.677,58.652 75.636,68.099 86.194,60.794 84.214,69.56 94.112,72.157 83.554,78.325 			"/>
		</g>
	</g>
</g>
<g id="Layer_1">
</g>
</svg>
