<?xml version="1.0" encoding="iso-8859-1"?>
<!-- Generator: Adobe Illustrator 21.0.2, SVG Export Plug-In . SVG Version: 6.00 Build 0)  -->
<svg version="1.1" xmlns="http://www.w3.org/2000/svg" xmlns:xlink="http://www.w3.org/1999/xlink" x="0px" y="0px"
	 viewBox="0 0 98 98" style="enable-background:new 0 0 98 98;" xml:space="preserve">
<g id="t_x5F_g5">
	<g>
		<g>
			<rect style="fill:#034972;" width="98" height="98"/>
			<g>
				<polyline style="fill:#02314C;" points="49.019,44.624 64.855,32.746 52.978,32.746 56.937,20.869 45.06,26.807 43.08,12.95 
					39.121,28.787 34.172,17.967 31.202,30.767 23.284,20.869 24.772,34.248 11.406,32.746 25.264,44.624 				"/>
				<polyline style="fill:#00649D;" points="25.264,48.583 9.427,36.705 21.304,36.705 17.345,24.828 29.223,30.767 31.202,16.91 
					35.162,32.746 40.111,21.926 43.08,34.726 50.998,24.828 49.51,38.207 62.876,36.705 49.019,48.583 				"/>
				<polyline style="fill:#034972;" points="22.624,49.325 9.509,43.585 17.345,40.56 12.066,31.794 27.903,36.177 30.543,25.95 
					35.821,37.638 42.42,29.653 46.379,39.099 56.937,31.794 54.957,40.56 64.855,43.157 54.298,49.325 				"/>
			</g>
		</g>
		<g>
			<polyline style="fill:#00649D;" points="74.536,66.348 90.373,54.471 78.496,54.471 82.455,42.593 70.577,48.532 68.598,34.675 
				64.638,50.512 59.689,39.691 56.72,52.491 48.802,42.593 50.29,55.972 36.924,54.471 50.781,66.348 			"/>
			<g>
				<polyline style="fill:#02314C;" points="50.781,70.307 34.945,58.43 46.822,58.43 42.863,46.552 54.74,52.491 56.72,38.634 
					60.679,54.471 65.628,43.651 68.598,56.45 76.516,46.552 75.028,59.931 88.394,58.43 74.536,70.307 				"/>
				<polyline style="fill:#034972;" points="48.142,71.05 35.026,65.31 42.863,62.284 37.584,53.518 53.421,57.901 56.06,47.675 
					61.339,59.362 67.938,51.377 71.897,60.823 82.455,53.518 80.475,62.284 90.373,64.881 79.815,71.05 				"/>
			</g>
		</g>
	</g>
</g>
<g id="Layer_1">
</g>
</svg>
