<?xml version="1.0" encoding="iso-8859-1"?>
<!-- Generator: Adobe Illustrator 21.0.2, SVG Export Plug-In . SVG Version: 6.00 Build 0)  -->
<svg version="1.1" xmlns="http://www.w3.org/2000/svg" xmlns:xlink="http://www.w3.org/1999/xlink" x="0px" y="0px"
	 viewBox="0 0 98 98" style="enable-background:new 0 0 98 98;" xml:space="preserve">
<g id="t_x5F_g6">
	<g>
		<rect x="0" y="0" transform="matrix(-1 -4.488111e-11 4.488111e-11 -1 98 98)" style="fill:#034972;" width="98" height="98"/>
		<g>
			<polyline style="fill:#02314C;" points="48.981,44.624 33.145,32.746 45.022,32.746 41.063,20.869 52.94,26.807 54.92,12.95 
				58.879,28.787 63.828,17.967 66.798,30.767 74.716,20.869 73.228,34.248 86.594,32.746 72.736,44.624 			"/>
			<polyline style="fill:#00649D;" points="72.736,48.583 88.573,36.705 76.696,36.705 80.655,24.828 68.777,30.767 66.798,16.91 
				62.838,32.746 57.889,21.926 54.92,34.726 47.002,24.828 48.49,38.207 35.124,36.705 48.981,48.583 			"/>
			<polyline style="fill:#034972;" points="75.376,49.325 88.492,43.585 80.655,40.56 85.934,31.794 70.097,36.177 67.457,25.95 
				62.179,37.638 55.58,29.653 51.621,39.099 41.063,31.794 43.043,40.56 33.145,43.157 43.702,49.325 			"/>
		</g>
		<g>
			<polyline style="fill:#02314C;" points="44.736,64.624 60.573,52.746 48.696,52.746 52.655,40.869 40.777,46.807 38.798,32.95 
				34.838,48.787 29.889,37.967 26.92,50.767 19.002,40.869 20.49,54.248 7.124,52.746 20.981,64.624 			"/>
			<polyline style="fill:#00649D;" points="20.981,68.583 5.145,56.705 17.022,56.705 13.063,44.828 24.94,50.767 26.92,36.91 
				30.879,52.746 35.828,41.926 38.798,54.726 46.716,44.828 45.228,58.207 58.594,56.705 44.736,68.583 			"/>
			<polyline style="fill:#034972;" points="18.342,69.325 5.226,63.34 13.063,60.185 7.784,51.044 23.621,55.614 26.26,44.95 
				31.539,57.138 38.138,48.811 42.097,58.661 52.655,51.044 50.675,60.185 60.573,62.893 50.015,69.325 			"/>
		</g>
	</g>
</g>
<g id="Layer_1">
</g>
</svg>
