<?xml version="1.0" encoding="iso-8859-1"?>
<!-- Generator: Adobe Illustrator 21.0.2, SVG Export Plug-In . SVG Version: 6.00 Build 0)  -->
<svg version="1.1" xmlns="http://www.w3.org/2000/svg" xmlns:xlink="http://www.w3.org/1999/xlink" x="0px" y="0px"
	 viewBox="0 0 98 98" style="enable-background:new 0 0 98 98;" xml:space="preserve">
<g id="t_x5F_g7">
	<g>
		<rect style="fill:#034972;" width="98" height="98"/>
		<g>
			<polyline style="fill:#02314C;" points="49.019,88.624 64.855,76.746 52.978,76.746 56.937,64.869 45.06,70.807 43.08,56.95 
				39.121,72.787 34.172,61.967 31.202,74.767 23.284,64.869 24.772,78.248 11.406,76.746 25.264,88.624 			"/>
			<polyline style="fill:#00649D;" points="25.264,92.583 9.427,80.705 21.304,80.705 17.345,68.828 29.223,74.767 31.202,60.91 
				35.162,76.746 40.111,65.926 43.08,78.726 50.998,68.828 49.51,82.207 62.876,80.705 49.019,92.583 			"/>
			<polyline style="fill:#034972;" points="22.624,93.325 9.509,87.585 17.345,84.56 12.066,75.794 27.903,80.177 30.543,69.95 
				35.821,81.638 42.42,73.653 46.379,83.099 56.937,75.794 54.957,84.56 64.855,87.157 54.298,93.325 			"/>
		</g>
		<g>
			<polyline style="fill:#02314C;" points="54.264,39.624 38.427,27.746 50.304,27.746 46.345,15.869 58.223,21.807 60.202,7.95 
				64.162,23.787 69.111,12.967 72.08,25.767 79.998,15.869 78.51,29.248 91.876,27.746 78.019,39.624 			"/>
			<polyline style="fill:#00649D;" points="78.019,43.583 93.855,31.705 81.978,31.705 85.937,19.828 74.06,25.767 72.08,11.91 
				68.121,27.746 63.172,16.926 60.202,29.726 52.284,19.828 53.772,33.207 40.406,31.705 54.264,43.583 			"/>
			<polyline style="fill:#034972;" points="80.658,44.325 93.774,38.34 85.937,35.185 91.216,26.044 75.379,30.614 72.74,19.95 
				67.461,32.138 60.862,23.811 56.903,33.661 46.345,26.044 48.325,35.185 38.427,37.893 48.985,44.325 			"/>
		</g>
	</g>
</g>
<g id="Layer_1">
</g>
</svg>
