<?xml version="1.0" encoding="iso-8859-1"?>
<!-- Generator: Adobe Illustrator 21.0.2, SVG Export Plug-In . SVG Version: 6.00 Build 0)  -->
<svg version="1.1" xmlns="http://www.w3.org/2000/svg" xmlns:xlink="http://www.w3.org/1999/xlink" x="0px" y="0px"
	 viewBox="0 0 98 98" style="enable-background:new 0 0 98 98;" xml:space="preserve">
<g id="t_x5F_g_x5F_E3">
	<g>
		<rect transform="matrix(6.123234e-17 -1 1 6.123234e-17 0 98)" style="fill:#CCCCCC;" width="98" height="98"/>
		
			<rect x="11.964" y="12.001" transform="matrix(6.123234e-17 -1 1 6.123234e-17 11.9643 109.9643)" style="fill:#034972;" width="98" height="73.998"/>
		<g>
			<polyline style="fill:#00649D;" points="36.624,54.981 24.746,39.145 24.746,51.022 12.869,47.063 18.807,58.941 4.95,60.92 
				20.787,64.879 9.967,69.828 22.767,72.798 12.869,80.716 26.248,79.228 24.746,92.594 36.624,78.736 			"/>
			<g>
				<polyline style="fill:#02314C;" points="40.583,78.736 28.705,94.573 28.705,82.696 16.828,86.655 22.767,74.777 8.91,72.798 
					24.746,68.839 13.926,63.89 26.726,60.92 16.828,53.002 30.207,54.49 28.705,41.124 40.583,54.981 				"/>
				<polyline style="fill:#034972;" points="41.325,81.376 35.585,94.492 32.56,86.655 23.794,91.934 28.177,76.097 17.95,73.457 
					29.638,68.179 21.652,61.58 31.099,57.621 23.794,47.063 32.56,49.043 35.157,39.145 41.325,49.702 				"/>
			</g>
		</g>
		<path style="fill:#999999;" d="M12.901,33.056c-0.141,1.365-5.876,1.899-7.17,1.076s-4.614-7.123-3.179-7.664
			S13.043,31.691,12.901,33.056z"/>
		<path style="fill:#999999;" d="M11.609,87.631c0.856,1.073,1.165,2.662-0.335,2.981s-8.283-1.848-7.639-3.24
			C4.279,85.98,10.753,86.558,11.609,87.631z"/>
	</g>
</g>
<g id="Layer_1">
</g>
</svg>
