<?xml version="1.0" encoding="iso-8859-1"?>
<!-- Generator: Adobe Illustrator 21.0.2, SVG Export Plug-In . SVG Version: 6.00 Build 0)  -->
<svg version="1.1" xmlns="http://www.w3.org/2000/svg" xmlns:xlink="http://www.w3.org/1999/xlink" x="0px" y="0px"
	 viewBox="0 0 98 98" style="enable-background:new 0 0 98 98;" xml:space="preserve">
<g id="t_x5F_g_x5F_W4">
	<g>
		<rect transform="matrix(-1.836970e-16 1 -1 -1.836970e-16 98 7.105427e-15)" style="fill:#CCCCCC;" width="98" height="98"/>
		
			<rect x="-12.135" y="12.172" transform="matrix(-1.836970e-16 1 -1 -1.836970e-16 85.8646 12.1354)" style="fill:#034972;" width="98" height="73.657"/>
		<g>
			<polyline style="fill:#00649D;" points="61.376,40.019 73.254,55.855 73.254,43.978 85.131,47.937 79.193,36.059 93.05,34.08 
				77.213,30.121 88.033,25.172 75.233,22.202 85.131,14.284 71.752,15.772 73.254,2.406 61.376,16.264 			"/>
			<polyline style="fill:#02314C;" points="57.417,16.264 69.295,0.427 69.295,12.304 81.172,8.345 75.233,20.223 89.09,22.202 
				73.254,26.161 84.074,31.11 71.274,34.08 81.172,41.998 67.793,40.51 69.295,53.876 57.417,40.019 			"/>
			<polyline style="fill:#034972;" points="56.675,13.624 62.415,0.509 65.44,8.345 74.206,3.066 69.823,18.903 80.05,21.543 
				68.362,26.821 76.348,33.42 66.901,37.379 74.206,47.937 65.44,45.957 62.843,55.855 56.675,45.298 			"/>
		</g>
		<g>
			<polyline style="fill:#02314C;" points="52.376,44.264 64.254,28.427 64.254,40.304 76.131,36.345 70.193,48.223 84.05,50.202 
				68.213,54.162 79.033,59.111 66.233,62.08 76.131,69.998 62.752,68.51 64.254,81.876 52.376,68.019 			"/>
			<polyline style="fill:#00649D;" points="48.417,68.019 60.295,83.855 60.295,71.978 72.172,75.937 66.233,64.06 80.09,62.08 
				64.254,58.121 75.074,53.172 62.274,50.202 72.172,42.284 58.793,43.772 60.295,30.406 48.417,44.264 			"/>
			<polyline style="fill:#034972;" points="47.675,70.658 53.66,83.774 56.815,75.937 65.956,81.216 61.386,65.379 72.05,62.74 
				59.862,57.461 68.189,50.862 58.339,46.903 65.956,36.345 56.815,38.325 54.107,28.427 47.675,38.985 			"/>
		</g>
	</g>
</g>
<g id="Layer_1">
</g>
</svg>
