<?xml version="1.0" encoding="iso-8859-1"?>
<!-- Generator: Adobe Illustrator 21.0.2, SVG Export Plug-In . SVG Version: 6.00 Build 0)  -->
<svg version="1.1" xmlns="http://www.w3.org/2000/svg" xmlns:xlink="http://www.w3.org/1999/xlink" x="0px" y="0px"
	 viewBox="0 0 99.05 98" style="enable-background:new 0 0 99.05 98;" xml:space="preserve">
<g id="t_x5F_g_x5F_E5">
	<g>
		
			<rect x="1.05" transform="matrix(6.123234e-17 -1 1 6.123234e-17 1.0497 99.0497)" style="fill:#CCCCCC;" width="98" height="98"/>
		
			<rect x="13.014" y="12.001" transform="matrix(6.123234e-17 -1 1 6.123234e-17 13.014 111.014)" style="fill:#034972;" width="98" height="73.998"/>
		<g>
			<polyline style="fill:#00649D;" points="31.673,81.736 19.796,97.573 19.796,85.696 7.918,89.655 13.857,77.777 0,75.798 
				15.837,71.838 5.017,66.889 17.816,63.92 7.918,56.002 21.298,57.49 19.796,44.124 31.673,57.981 			"/>
			<polyline style="fill:#02314C;" points="35.633,57.981 23.755,42.145 23.755,54.022 11.878,50.063 17.816,61.94 3.959,63.92 
				19.796,67.879 8.976,72.828 21.776,75.798 11.878,83.716 25.257,82.228 23.755,95.594 35.633,81.736 			"/>
			<polyline style="fill:#034972;" points="36.375,55.342 30.635,42.226 27.609,50.063 18.844,44.784 23.226,60.621 13,63.26 
				24.687,68.539 16.702,75.138 26.148,79.097 18.844,89.655 27.609,87.675 30.206,97.573 36.375,87.015 			"/>
		</g>
		<g>
			<polyline style="fill:#02314C;" points="37.673,39.736 25.796,55.573 25.796,43.696 13.918,47.655 19.857,35.777 6,33.798 
				21.837,29.838 11.017,24.889 23.816,21.92 13.918,14.002 27.298,15.49 25.796,2.124 37.673,15.981 			"/>
			<polyline style="fill:#00649D;" points="41.633,15.981 29.755,0.145 29.755,12.022 17.878,8.063 23.816,19.94 9.959,21.92 
				25.796,25.879 14.976,30.828 27.776,33.798 17.878,41.716 31.257,40.228 29.755,53.594 41.633,39.736 			"/>
			<polyline style="fill:#034972;" points="42.375,13.342 36.389,0.226 33.234,8.063 24.094,2.784 28.664,18.621 18,21.26 
				30.187,26.539 21.86,33.138 31.711,37.097 24.094,47.655 33.234,45.675 35.943,55.573 42.375,45.015 			"/>
		</g>
	</g>
</g>
<g id="Layer_1">
</g>
</svg>
