<?xml version="1.0" encoding="iso-8859-1"?>
<!-- Generator: Adobe Illustrator 21.0.2, SVG Export Plug-In . SVG Version: 6.00 Build 0)  -->
<svg version="1.1" xmlns="http://www.w3.org/2000/svg" xmlns:xlink="http://www.w3.org/1999/xlink" x="0px" y="0px"
	 viewBox="0 0 98 98" style="enable-background:new 0 0 98 98;" xml:space="preserve">
<g id="t_x5F_g_x5F_NW1">
	<g>
		<g>
			<g>
				<rect x="0" y="0" style="fill:#CCCCCC;" width="98" height="98"/>
				<path style="fill:#034972;" d="M98,0L0,0l0,98h74c0,0,1.232-14.472,5.759-19c6-6,18.241-5,18.241-5V0z"/>
			</g>
		</g>
		<g>
			<polyline style="fill:#00649D;" points="26.264,55.624 10.427,43.746 22.304,43.746 18.345,31.869 30.223,37.807 32.202,23.95 
				36.162,39.787 41.111,28.967 44.08,41.767 51.998,31.869 50.51,45.248 63.876,43.746 50.019,55.624 			"/>
			<polyline style="fill:#02314C;" points="50.019,59.583 65.855,47.705 53.978,47.705 57.937,35.828 46.06,41.767 44.08,27.91 
				40.121,43.746 35.172,32.926 32.202,45.726 24.284,35.828 25.772,49.207 12.406,47.705 26.264,59.583 			"/>
			<polyline style="fill:#034972;" points="52.658,60.325 65.774,54.585 57.937,51.56 63.216,42.794 47.379,47.177 44.74,36.95 
				39.461,48.638 32.862,40.652 28.903,50.099 18.345,42.794 20.325,51.56 10.427,54.157 20.985,60.325 			"/>
		</g>
	</g>
</g>
<g id="Layer_1">
</g>
</svg>
