<?xml version="1.0" encoding="iso-8859-1"?>
<!-- Generator: Adobe Illustrator 21.0.2, SVG Export Plug-In . SVG Version: 6.00 Build 0)  -->
<svg version="1.1" xmlns="http://www.w3.org/2000/svg" xmlns:xlink="http://www.w3.org/1999/xlink" x="0px" y="0px"
	 viewBox="0 0 98 98" style="enable-background:new 0 0 98 98;" xml:space="preserve">
<g id="t_x5F_g_x5F_S2">
	<g>
		<rect style="fill:#CCCCCC;" width="98" height="98"/>
		<rect y="24.136" style="fill:#034972;" width="98" height="73.827"/>
		<g>
			<polyline style="fill:#00649D;" points="43.019,37.624 58.855,25.746 46.978,25.746 50.937,13.869 39.059,19.807 37.08,5.95 
				33.121,21.787 28.172,10.967 25.202,23.767 17.284,13.869 18.772,27.248 5.406,25.746 19.264,37.624 			"/>
			<g>
				<polyline style="fill:#02314C;" points="19.264,41.583 3.427,29.705 15.304,29.705 11.345,17.828 23.223,23.767 25.202,9.91 
					29.161,25.746 34.11,14.926 37.08,27.726 44.998,17.828 43.51,31.207 56.876,29.705 43.019,41.583 				"/>
				<polyline style="fill:#034972;" points="16.624,42.325 3.509,36.585 11.345,33.56 6.066,24.794 21.903,29.177 24.543,18.95 
					29.821,30.638 36.42,22.652 40.379,32.099 50.937,24.794 48.957,33.56 58.855,36.157 48.298,42.325 				"/>
			</g>
		</g>
		<path style="fill:#999999;" d="M64.944,12.901c-1.365-0.141-1.899-5.876-1.076-7.17c0.824-1.294,7.123-4.614,7.664-3.179
			C72.074,3.987,66.309,13.043,64.944,12.901z"/>
		<path style="fill:#999999;" d="M10.369,11.609c-1.073,0.856-2.662,1.165-2.981-0.335s1.848-8.283,3.24-7.639
			S11.442,10.753,10.369,11.609z"/>
	</g>
</g>
<g id="Layer_1">
</g>
</svg>
