<?xml version="1.0" encoding="iso-8859-1"?>
<!-- Generator: Adobe Illustrator 21.0.2, SVG Export Plug-In . SVG Version: 6.00 Build 0)  -->
<svg version="1.1" xmlns="http://www.w3.org/2000/svg" xmlns:xlink="http://www.w3.org/1999/xlink" x="0px" y="0px"
	 viewBox="0 0 98.05 98" style="enable-background:new 0 0 98.05 98;" xml:space="preserve">
<g id="t_x5F_g_x5F_W5">
	<g>
		<rect transform="matrix(-1.836970e-16 1 -1 -1.836970e-16 98 7.105427e-15)" style="fill:#CCCCCC;" width="98" height="98"/>
		
			<rect x="-12.135" y="12.172" transform="matrix(-1.836970e-16 1 -1 -1.836970e-16 85.8646 12.1354)" style="fill:#034972;" width="98" height="73.657"/>
		<g>
			<polyline style="fill:#00649D;" points="66.376,16.264 78.254,0.427 78.254,12.304 90.131,8.345 84.193,20.223 98.05,22.202 
				82.213,26.162 93.033,31.111 80.233,34.08 90.131,41.998 76.752,40.51 78.254,53.876 66.376,40.019 			"/>
			<polyline style="fill:#02314C;" points="62.417,40.019 74.295,55.855 74.295,43.978 86.172,47.937 80.233,36.06 94.09,34.08 
				78.254,30.121 89.074,25.172 76.274,22.202 86.172,14.284 72.793,15.772 74.295,2.406 62.417,16.264 			"/>
			<polyline style="fill:#034972;" points="61.675,42.658 67.415,55.774 70.44,47.937 79.206,53.216 74.823,37.379 85.05,34.74 
				73.362,29.461 81.348,22.862 71.901,18.903 79.206,8.345 70.44,10.325 67.843,0.427 61.675,10.985 			"/>
		</g>
		<g>
			<polyline style="fill:#02314C;" points="60.376,58.264 72.254,42.427 72.254,54.304 84.131,50.345 78.193,62.223 92.05,64.202 
				76.213,68.162 87.033,73.111 74.233,76.08 84.131,83.998 70.752,82.51 72.254,95.876 60.376,82.019 			"/>
			<polyline style="fill:#00649D;" points="56.417,82.019 68.295,97.855 68.295,85.978 80.172,89.937 74.233,78.06 88.09,76.08 
				72.254,72.121 83.074,67.172 70.274,64.202 80.172,56.284 66.793,57.772 68.295,44.406 56.417,58.264 			"/>
			<polyline style="fill:#034972;" points="55.675,84.658 61.66,97.774 64.815,89.937 73.956,95.216 69.386,79.379 80.05,76.74 
				67.862,71.461 76.189,64.862 66.339,60.903 73.956,50.345 64.815,52.325 62.107,42.427 55.675,52.985 			"/>
		</g>
	</g>
</g>
<g id="Layer_1">
</g>
</svg>
