<?xml version="1.0" encoding="iso-8859-1"?>
<!-- Generator: Adobe Illustrator 21.0.2, SVG Export Plug-In . SVG Version: 6.00 Build 0)  -->
<svg version="1.1" xmlns="http://www.w3.org/2000/svg" xmlns:xlink="http://www.w3.org/1999/xlink" x="0px" y="0px"
	 viewBox="0 0 98 98" style="enable-background:new 0 0 98 98;" xml:space="preserve">
<g id="t_x5F_g_x5F_E4">
	<g>
		<rect transform="matrix(6.123234e-17 -1 1 6.123234e-17 0 98)" style="fill:#CCCCCC;" width="98" height="98"/>
		
			<rect x="11.964" y="12.001" transform="matrix(6.123234e-17 -1 1 6.123234e-17 11.9643 109.9643)" style="fill:#034972;" width="98" height="73.998"/>
		<g>
			<polyline style="fill:#00649D;" points="35.624,57.981 23.746,42.145 23.746,54.022 11.869,50.063 17.807,61.941 3.95,63.92 
				19.787,67.879 8.967,72.828 21.767,75.798 11.869,83.716 25.248,82.228 23.746,95.594 35.624,81.736 			"/>
			<polyline style="fill:#02314C;" points="39.583,81.736 27.705,97.573 27.705,85.696 15.828,89.655 21.767,77.777 7.91,75.798 
				23.746,71.839 12.926,66.89 25.726,63.92 15.828,56.002 29.207,57.49 27.705,44.124 39.583,57.981 			"/>
			<polyline style="fill:#034972;" points="40.325,84.376 34.585,97.492 31.56,89.655 22.794,94.934 27.177,79.097 16.95,76.457 
				28.638,71.179 20.652,64.58 30.099,60.621 22.794,50.063 31.56,52.043 34.157,42.145 40.325,52.702 			"/>
		</g>
		<g>
			<polyline style="fill:#02314C;" points="44.624,53.736 32.746,69.573 32.746,57.696 20.869,61.655 26.807,49.777 12.95,47.798 
				28.787,43.838 17.967,38.889 30.767,35.92 20.869,28.002 34.248,29.49 32.746,16.124 44.624,29.981 			"/>
			<polyline style="fill:#00649D;" points="48.583,29.981 36.705,14.145 36.705,26.022 24.828,22.063 30.767,33.94 16.91,35.92 
				32.746,39.879 21.926,44.828 34.726,47.798 24.828,55.716 38.207,54.228 36.705,67.594 48.583,53.736 			"/>
			<polyline style="fill:#034972;" points="49.325,27.342 43.34,14.226 40.185,22.063 31.044,16.784 35.614,32.621 24.95,35.26 
				37.138,40.539 28.811,47.138 38.661,51.097 31.044,61.655 40.185,59.675 42.893,69.573 49.325,59.015 			"/>
		</g>
		<path style="fill:#999999;" d="M1.955,12.077c-0.126-1.848,7.379-3.878,9.289-3.08c1.91,0.798,7.775,8.413,5.991,9.464
			C15.452,19.511,2.081,13.925,1.955,12.077z"/>
	</g>
</g>
<g id="Layer_1">
</g>
</svg>
