<?xml version="1.0" encoding="iso-8859-1"?>
<!-- Generator: Adobe Illustrator 21.0.2, SVG Export Plug-In . SVG Version: 6.00 Build 0)  -->
<svg version="1.1" xmlns="http://www.w3.org/2000/svg" xmlns:xlink="http://www.w3.org/1999/xlink" x="0px" y="0px"
	 viewBox="0 0 98 98" style="enable-background:new 0 0 98 98;" xml:space="preserve">
<g id="t_x5F_g_x5F_N4">
	<g>
		<rect transform="matrix(-1 -1.224647e-16 1.224647e-16 -1 98 98)" style="fill:#CCCCCC;" width="98" height="98"/>
		
			<rect y="0.037" transform="matrix(-1 -1.224647e-16 1.224647e-16 -1 98 73.9002)" style="fill:#034972;" width="98" height="73.827"/>
		<g>
			<polyline style="fill:#00649D;" points="54.981,60.376 39.145,72.254 51.022,72.254 47.063,84.131 58.941,78.193 60.92,92.05 
				64.879,76.213 69.828,87.033 72.798,74.233 80.716,84.131 79.228,70.752 92.594,72.254 78.736,60.376 			"/>
			<g>
				<polyline style="fill:#02314C;" points="78.736,56.417 94.573,68.295 82.696,68.295 86.655,80.172 74.777,74.233 72.798,88.09 
					68.839,72.254 63.89,83.074 60.92,70.274 53.002,80.172 54.49,66.793 41.124,68.295 54.981,56.417 				"/>
				<polyline style="fill:#034972;" points="81.376,55.675 94.492,61.415 86.655,64.44 91.934,73.206 76.097,68.823 73.457,79.05 
					68.179,67.362 61.58,75.348 57.621,65.901 47.063,73.206 49.043,64.44 39.145,61.843 49.702,55.675 				"/>
			</g>
		</g>
	</g>
</g>
<g id="Layer_1">
</g>
</svg>
