<?xml version="1.0" encoding="iso-8859-1"?>
<!-- Generator: Adobe Illustrator 21.0.2, SVG Export Plug-In . SVG Version: 6.00 Build 0)  -->
<svg version="1.1" xmlns="http://www.w3.org/2000/svg" xmlns:xlink="http://www.w3.org/1999/xlink" x="0px" y="0px"
	 viewBox="0 0 98 98" style="enable-background:new 0 0 98 98;" xml:space="preserve">
<g id="t_x5F_g_x5F_SW1">
	<g>
		<g>
			
				<rect x="0" y="0" transform="matrix(4.488061e-11 -1 1 4.488061e-11 6.602939e-09 98)" style="fill:#CCCCCC;" width="98" height="98"/>
			<path style="fill:#034972;" d="M0,0l0,98h98V24c0,0-14.472-1.232-19-5.759C73,12.241,74,0,74,0L0,0z"/>
		</g>
	</g>
	<g>
		<polyline style="fill:#02314C;" points="55.019,37.624 70.855,25.746 58.978,25.746 62.937,13.869 51.06,19.807 49.08,5.95 
			45.121,21.787 40.172,10.967 37.202,23.767 29.284,13.869 30.772,27.248 17.406,25.746 31.264,37.624 		"/>
		<polyline style="fill:#00649D;" points="31.264,41.583 15.427,29.705 27.304,29.705 23.345,17.828 35.223,23.767 37.202,9.91 
			41.162,25.746 46.111,14.926 49.08,27.726 56.998,17.828 55.51,31.207 68.876,29.705 55.019,41.583 		"/>
		<polyline style="fill:#034972;" points="28.624,42.325 15.509,36.585 23.345,33.56 18.066,24.794 33.903,29.177 36.543,18.95 
			41.821,30.638 48.42,22.653 52.379,32.099 62.937,24.794 60.957,33.56 70.855,36.157 60.298,42.325 		"/>
	</g>
</g>
<g id="Layer_1">
</g>
</svg>
