<?xml version="1.0" encoding="iso-8859-1"?>
<!-- Generator: Adobe Illustrator 21.0.2, SVG Export Plug-In . SVG Version: 6.00 Build 0)  -->
<svg version="1.1" xmlns="http://www.w3.org/2000/svg" xmlns:xlink="http://www.w3.org/1999/xlink" x="0px" y="0px"
	 viewBox="0 0 98.199 98.199" style="enable-background:new 0 0 98.199 98.199;" xml:space="preserve">
<g id="t_x5F_g_x5F_S5">
	<g>
		<rect x="0.1" y="0.1" transform="matrix(1 -0.002 0.002 1 -0.0998 0.1)" style="fill:#CCCCCC;" width="98" height="98"/>
		<polygon style="fill:#034972;" points="98.199,97.927 0.2,98.199 0.09,24.372 98.09,24.1 		"/>
		<g>
			<polyline style="fill:#02314C;" points="37.367,35.733 21.506,23.888 33.383,23.864 29.4,11.994 41.289,17.909 43.241,4.048 
				47.232,19.876 52.159,9.046 55.155,21.84 63.053,11.926 61.592,25.308 74.955,23.779 61.122,35.685 			"/>
			<polyline style="fill:#00649D;" points="61.13,39.644 76.942,27.734 65.065,27.758 69,15.873 57.134,21.836 55.126,7.983 
				51.199,23.827 46.229,13.017 43.285,25.823 35.347,15.941 36.862,29.317 23.493,27.843 37.375,39.692 			"/>
			<polyline style="fill:#034972;" points="63.771,40.381 76.874,34.368 69.031,31.229 74.291,22.078 58.464,26.681 55.803,16.022 
				50.548,28.22 43.933,19.907 39.994,29.765 29.42,22.169 31.419,31.306 21.526,34.034 32.097,40.445 			"/>
		</g>
	</g>
</g>
<g id="Layer_1">
</g>
</svg>
