<?xml version="1.0" encoding="iso-8859-1"?>
<!-- Generator: Adobe Illustrator 21.0.2, SVG Export Plug-In . SVG Version: 6.00 Build 0)  -->
<svg version="1.1" xmlns="http://www.w3.org/2000/svg" xmlns:xlink="http://www.w3.org/1999/xlink" x="0px" y="0px"
	 viewBox="0 0 98 98" style="enable-background:new 0 0 98 98;" xml:space="preserve">
<g id="t_x5F_g_x5F_E2">
	<g>
		<rect transform="matrix(6.123234e-17 -1 1 6.123234e-17 0 98)" style="fill:#CCCCCC;" width="98" height="98"/>
		
			<rect x="11.964" y="12.001" transform="matrix(6.123234e-17 -1 1 6.123234e-17 11.9643 109.9643)" style="fill:#034972;" width="98" height="73.998"/>
		<g>
			<polyline style="fill:#02314C;" points="35.624,41.736 23.746,57.573 23.746,45.696 11.869,49.655 17.807,37.777 3.95,35.798 
				19.787,31.838 8.967,26.889 21.767,23.92 11.869,16.002 25.248,17.49 23.746,4.124 35.624,17.981 			"/>
			<polyline style="fill:#00649D;" points="39.583,17.981 27.705,2.145 27.705,14.022 15.828,10.063 21.767,21.94 7.91,23.92 
				23.746,27.879 12.926,32.828 25.726,35.798 15.828,43.716 29.207,42.228 27.705,55.594 39.583,41.736 			"/>
			<polyline style="fill:#034972;" points="40.325,15.342 34.34,2.226 31.185,10.063 22.044,4.784 26.614,20.621 15.95,23.26 
				28.138,28.539 19.811,35.138 29.661,39.097 22.044,49.655 31.185,47.675 33.893,57.573 40.325,47.015 			"/>
		</g>
	</g>
</g>
<g id="Layer_1">
</g>
</svg>
