<?xml version="1.0" encoding="iso-8859-1"?>
<!-- Generator: Adobe Illustrator 21.0.2, SVG Export Plug-In . SVG Version: 6.00 Build 0)  -->
<svg version="1.1" xmlns="http://www.w3.org/2000/svg" xmlns:xlink="http://www.w3.org/1999/xlink" x="0px" y="0px"
	 viewBox="0 0 98 98.05" style="enable-background:new 0 0 98 98.05;" xml:space="preserve">
<g id="t_x5F_g_x5F_S4">
	<g>
		<rect y="0.05" style="fill:#CCCCCC;" width="98" height="98"/>
		<rect y="24.186" style="fill:#034972;" width="98" height="73.827"/>
		<g>
			<polyline style="fill:#00649D;" points="16.264,31.673 0.427,19.796 12.304,19.796 8.345,7.918 20.223,13.857 22.202,0 
				26.162,15.837 31.111,5.017 34.08,17.816 41.998,7.918 40.51,21.298 53.876,19.796 40.019,31.673 			"/>
			<polyline style="fill:#02314C;" points="40.019,35.633 55.855,23.755 43.978,23.755 47.937,11.878 36.06,17.816 34.08,3.959 
				30.121,19.796 25.172,8.976 22.202,21.776 14.284,11.878 15.772,25.257 2.406,23.755 16.264,35.633 			"/>
			<polyline style="fill:#034972;" points="42.658,36.375 55.774,30.635 47.937,27.609 53.216,18.844 37.379,23.226 34.74,13 
				29.461,24.687 22.862,16.702 18.903,26.148 8.345,18.844 10.325,27.609 0.427,30.206 10.985,36.375 			"/>
		</g>
		<g>
			<polyline style="fill:#02314C;" points="58.264,37.673 42.427,25.796 54.304,25.796 50.345,13.918 62.223,19.857 64.202,6 
				68.162,21.837 73.111,11.017 76.08,23.816 83.998,13.918 82.51,27.298 95.876,25.796 82.019,37.673 			"/>
			<polyline style="fill:#00649D;" points="82.019,41.633 97.855,29.755 85.978,29.755 89.937,17.878 78.06,23.816 76.08,9.959 
				72.121,25.796 67.172,14.976 64.202,27.776 56.284,17.878 57.772,31.257 44.406,29.755 58.264,41.633 			"/>
			<polyline style="fill:#034972;" points="84.658,42.375 97.774,36.389 89.937,33.234 95.216,24.094 79.379,28.664 76.74,18 
				71.461,30.187 64.862,21.86 60.903,31.711 50.345,24.094 52.325,33.234 42.427,35.943 52.985,42.375 			"/>
		</g>
	</g>
</g>
<g id="Layer_1">
</g>
</svg>
