<?xml version="1.0" encoding="iso-8859-1"?>
<!-- Generator: Adobe Illustrator 21.0.2, SVG Export Plug-In . SVG Version: 6.00 Build 0)  -->
<svg version="1.1" xmlns="http://www.w3.org/2000/svg" xmlns:xlink="http://www.w3.org/1999/xlink" x="0px" y="0px"
	 viewBox="0 0 98 98" style="enable-background:new 0 0 98 98;" xml:space="preserve">
<g id="t_x5F_g_x5F_NE1">
	<g>
		<g>
			<g>
				
					<rect x="0" y="0" transform="matrix(-4.488073e-11 1 -1 -4.488073e-11 98 -2.200977e-09)" style="fill:#CCCCCC;" width="98" height="98"/>
				<path style="fill:#034972;" d="M98,98V0L0,0l0,74c0,0,14.472,1.232,19,5.759c6,6,5,18.241,5,18.241H98z"/>
			</g>
		</g>
		<g>
			<polyline style="fill:#02314C;" points="28.264,37.624 12.427,25.746 24.304,25.746 20.345,13.869 32.223,19.807 34.202,5.95 
				38.162,21.787 43.111,10.967 46.08,23.767 53.998,13.869 52.51,27.248 65.876,25.746 52.019,37.624 			"/>
			<polyline style="fill:#00649D;" points="52.019,41.583 67.855,29.705 55.978,29.705 59.937,17.828 48.06,23.767 46.08,9.91 
				42.121,25.746 37.172,14.926 34.202,27.726 26.284,17.828 27.772,31.207 14.406,29.705 28.264,41.583 			"/>
			<polyline style="fill:#034972;" points="54.658,42.325 67.774,36.34 59.937,33.185 65.216,24.044 49.379,28.614 46.74,17.95 
				41.461,30.138 34.862,21.811 30.903,31.661 20.345,24.044 22.325,33.185 12.427,35.893 22.985,42.325 			"/>
		</g>
	</g>
</g>
<g id="Layer_1">
</g>
</svg>
