<?xml version="1.0" encoding="iso-8859-1"?>
<!-- Generator: Adobe Illustrator 21.0.2, SVG Export Plug-In . SVG Version: 6.00 Build 0)  -->
<svg version="1.1" xmlns="http://www.w3.org/2000/svg" xmlns:xlink="http://www.w3.org/1999/xlink" x="0px" y="0px"
	 viewBox="0 0 98.199 98.199" style="enable-background:new 0 0 98.199 98.199;" xml:space="preserve">
<g id="t_x5F_g_x5F_W2">
	<g>
		<rect x="0.1" y="0.1" transform="matrix(0.002 1 -1 0.002 98.0992 -0.0998)" style="fill:#CCCCCC;" width="98" height="98"/>
		<polygon style="fill:#034972;" points="0.272,98.199 0,0.2 73.656,0.09 73.929,98.09 		"/>
		<g>
			<polyline style="fill:#02314C;" points="62.466,37.367 74.312,21.506 74.336,33.383 86.205,29.4 80.291,41.289 94.152,43.241 
				78.323,47.232 89.153,52.159 76.36,55.155 86.274,63.053 72.892,61.592 74.42,74.955 62.515,61.122 			"/>
			<polyline style="fill:#00649D;" points="58.555,61.13 70.465,76.942 70.441,65.065 82.327,69 76.364,57.134 90.217,55.126 
				74.372,51.199 85.182,46.229 72.376,43.285 82.258,35.347 68.882,36.862 70.356,23.493 58.507,37.375 			"/>
			<polyline style="fill:#034972;" points="57.819,63.771 63.831,76.874 66.97,69.031 76.121,74.291 71.519,58.464 82.177,55.803 
				69.979,50.548 78.293,43.933 68.434,39.994 76.03,29.42 66.893,31.419 64.165,21.526 57.754,32.097 			"/>
		</g>
	</g>
</g>
<g id="Layer_1">
</g>
</svg>
