<?xml version="1.0" encoding="iso-8859-1"?>
<!-- Generator: Adobe Illustrator 21.0.2, SVG Export Plug-In . SVG Version: 6.00 Build 0)  -->
<svg version="1.1" xmlns="http://www.w3.org/2000/svg" xmlns:xlink="http://www.w3.org/1999/xlink" x="0px" y="0px"
	 viewBox="0 0 98 98" style="enable-background:new 0 0 98 98;" xml:space="preserve">
<g id="t_x5F_g_x5F_S1">
	<g>
		<rect style="fill:#CCCCCC;" width="98" height="98"/>
		<rect y="24.136" style="fill:#034972;" width="98" height="73.827"/>
		<g>
			<polyline style="fill:#00649D;" points="40.019,36.624 55.855,24.746 43.978,24.746 47.937,12.869 36.059,18.807 34.08,4.95 
				30.121,20.787 25.172,9.967 22.202,22.767 14.284,12.869 15.772,26.248 2.406,24.746 16.264,36.624 			"/>
			<polyline style="fill:#02314C;" points="16.264,40.583 0.427,28.705 12.304,28.705 8.345,16.828 20.223,22.767 22.202,8.91 
				26.161,24.746 31.11,13.926 34.08,26.726 41.998,16.828 40.51,30.207 53.876,28.705 40.019,40.583 			"/>
			<polyline style="fill:#034972;" points="13.624,41.325 0.509,35.585 8.345,32.56 3.066,23.794 18.903,28.177 21.543,17.95 
				26.821,29.638 33.42,21.652 37.379,31.099 47.937,23.794 45.957,32.56 55.855,35.157 45.298,41.325 			"/>
		</g>
		<g>
			<polyline style="fill:#02314C;" points="44.264,45.624 28.427,33.746 40.304,33.746 36.345,21.869 48.223,27.807 50.202,13.95 
				54.162,29.787 59.111,18.967 62.08,31.767 69.998,21.869 68.51,35.248 81.876,33.746 68.019,45.624 			"/>
			<polyline style="fill:#00649D;" points="68.019,49.583 83.855,37.705 71.978,37.705 75.937,25.828 64.06,31.767 62.08,17.91 
				58.121,33.746 53.172,22.926 50.202,35.726 42.284,25.828 43.772,39.207 30.406,37.705 44.264,49.583 			"/>
			<polyline style="fill:#034972;" points="70.658,50.325 83.774,44.34 75.937,41.185 81.216,32.044 65.379,36.614 62.74,25.95 
				57.461,38.138 50.862,29.811 46.903,39.661 36.345,32.044 38.325,41.185 28.427,43.893 38.985,50.325 			"/>
		</g>
		<path style="fill:#999999;" d="M85.923,1.955c1.848-0.126,3.878,7.379,3.08,9.289s-8.413,7.775-9.464,5.991
			C78.489,15.452,84.075,2.081,85.923,1.955z"/>
	</g>
</g>
<g id="Layer_1">
</g>
</svg>
