<?xml version="1.0" encoding="iso-8859-1"?>
<!-- Generator: Adobe Illustrator 21.0.2, SVG Export Plug-In . SVG Version: 6.00 Build 0)  -->
<svg version="1.1" xmlns="http://www.w3.org/2000/svg" xmlns:xlink="http://www.w3.org/1999/xlink" x="0px" y="0px"
	 viewBox="0 0 98 98" style="enable-background:new 0 0 98 98;" xml:space="preserve">
<g id="t_x5F_g_x5F_SE1">
	<g>
		<g>
			<g>
				<rect x="0" y="0" transform="matrix(-1 -4.488111e-11 4.488111e-11 -1 98 98)" style="fill:#CCCCCC;" width="98" height="98"/>
				<path style="fill:#034972;" d="M0,98h98V0L24,0c0,0-1.232,14.472-5.759,19C12.241,25,0,24,0,24L0,98z"/>
			</g>
		</g>
		<g>
			<polyline style="fill:#02314C;" points="44.019,54.624 59.855,42.746 47.978,42.746 51.937,30.869 40.06,36.807 38.08,22.95 
				34.121,38.787 29.172,27.967 26.202,40.767 18.284,30.869 19.772,44.248 6.406,42.746 20.264,54.624 			"/>
			<polyline style="fill:#00649D;" points="20.264,58.583 4.427,46.705 16.304,46.705 12.345,34.828 24.223,40.767 26.202,26.91 
				30.162,42.746 35.111,31.926 38.08,44.726 45.998,34.828 44.51,48.207 57.876,46.705 44.019,58.583 			"/>
			<polyline style="fill:#034972;" points="17.624,59.325 4.509,53.585 12.345,50.56 7.066,41.794 22.903,46.177 25.543,35.95 
				30.821,47.638 37.42,39.653 41.379,49.099 51.937,41.794 49.957,50.56 59.855,53.157 49.298,59.325 			"/>
		</g>
	</g>
</g>
<g id="Layer_1">
</g>
</svg>
