<?xml version="1.0" encoding="iso-8859-1"?>
<!-- Generator: Adobe Illustrator 21.0.2, SVG Export Plug-In . SVG Version: 6.00 Build 0)  -->
<svg version="1.1" xmlns="http://www.w3.org/2000/svg" xmlns:xlink="http://www.w3.org/1999/xlink" x="0px" y="0px"
	 viewBox="0 0 98 98" style="enable-background:new 0 0 98 98;" xml:space="preserve">
<g id="t_x5F_g_x5F_W3">
	<g>
		<rect transform="matrix(-1.836970e-16 1 -1 -1.836970e-16 98 7.105427e-15)" style="fill:#CCCCCC;" width="98" height="98"/>
		
			<rect x="-12.135" y="12.172" transform="matrix(-1.836970e-16 1 -1 -1.836970e-16 85.8646 12.1354)" style="fill:#034972;" width="98" height="73.657"/>
		<g>
			<polyline style="fill:#00649D;" points="60.376,43.019 72.254,58.855 72.254,46.978 84.131,50.937 78.193,39.059 92.05,37.08 
				76.213,33.121 87.033,28.172 74.233,25.202 84.131,17.284 70.752,18.772 72.254,5.406 60.376,19.264 			"/>
			<g>
				<polyline style="fill:#02314C;" points="56.417,19.264 68.295,3.427 68.295,15.304 80.172,11.345 74.233,23.223 88.09,25.202 
					72.254,29.161 83.074,34.11 70.274,37.08 80.172,44.998 66.793,43.51 68.295,56.876 56.417,43.019 				"/>
				<polyline style="fill:#034972;" points="55.675,16.624 61.415,3.509 64.44,11.345 73.206,6.066 68.823,21.903 79.05,24.543 
					67.362,29.821 75.348,36.42 65.901,40.379 73.206,50.937 64.44,48.957 61.843,58.855 55.675,48.298 				"/>
			</g>
		</g>
		<path style="fill:#999999;" d="M85.099,64.944c0.141-1.365,5.876-1.899,7.17-1.076c1.294,0.824,4.614,7.123,3.179,7.664
			C94.013,72.074,84.957,66.309,85.099,64.944z"/>
	</g>
</g>
<g id="Layer_1">
</g>
</svg>
