<?xml version="1.0" encoding="iso-8859-1"?>
<!-- Generator: Adobe Illustrator 21.0.2, SVG Export Plug-In . SVG Version: 6.00 Build 0)  -->
<svg version="1.1" xmlns="http://www.w3.org/2000/svg" xmlns:xlink="http://www.w3.org/1999/xlink" x="0px" y="0px"
	 viewBox="0 0 98.199 98.199" style="enable-background:new 0 0 98.199 98.199;" xml:space="preserve">
<g id="t_x5F_g_x5F_N3">
	<g>
		<rect x="0.1" y="0.1" transform="matrix(-1 0.002 -0.002 -1 98.2994 98.0992)" style="fill:#CCCCCC;" width="98" height="98"/>
		<polygon style="fill:#034972;" points="0,0.273 98,0 98.11,73.827 0.11,74.1 		"/>
		<g>
			<polyline style="fill:#02314C;" points="60.833,62.466 76.694,74.312 64.816,74.336 68.8,86.205 56.91,80.291 54.959,94.152 
				50.967,78.323 46.04,89.153 43.045,76.36 35.147,86.274 36.607,72.892 23.245,74.42 37.078,62.515 			"/>
			<polyline style="fill:#00649D;" points="37.07,58.555 21.257,70.465 33.135,70.441 29.2,82.327 41.065,76.364 43.073,90.217 
				47,74.372 51.971,85.182 54.914,72.376 62.853,82.258 61.338,68.882 74.706,70.356 60.825,58.507 			"/>
			<polyline style="fill:#034972;" points="34.429,57.819 21.325,63.831 29.169,66.97 23.908,76.121 39.736,71.519 42.397,82.177 
				47.651,69.979 54.267,78.293 58.206,68.434 68.779,76.03 66.781,66.893 76.673,64.165 66.102,57.754 			"/>
		</g>
		<path style="fill:#999999;" d="M23.843,82.1c0.97,0.97,1.455,2.515,0,3c-1.455,0.485-8.437-0.911-7.953-2.366
			C16.375,81.278,22.873,81.129,23.843,82.1z"/>
	</g>
</g>
<g id="Layer_1">
</g>
</svg>
