<?xml version="1.0" encoding="iso-8859-1"?>
<!-- Generator: Adobe Illustrator 21.0.2, SVG Export Plug-In . SVG Version: 6.00 Build 0)  -->
<svg version="1.1" xmlns="http://www.w3.org/2000/svg" xmlns:xlink="http://www.w3.org/1999/xlink" x="0px" y="0px"
	 viewBox="0 0 98 98" style="enable-background:new 0 0 98 98;" xml:space="preserve">
<g id="t_x5F_g_x5F_W1">
	<g>
		<rect transform="matrix(-1.836970e-16 1 -1 -1.836970e-16 98 7.105427e-15)" style="fill:#CCCCCC;" width="98" height="98"/>
		
			<rect x="-12.135" y="12.172" transform="matrix(-1.836970e-16 1 -1 -1.836970e-16 85.8646 12.1354)" style="fill:#034972;" width="98" height="73.657"/>
		<g>
			<polyline style="fill:#02314C;" points="61.376,56.264 73.254,40.427 73.254,52.304 85.131,48.345 79.193,60.223 93.05,62.202 
				77.213,66.162 88.033,71.111 75.233,74.08 85.131,81.998 71.752,80.51 73.254,93.876 61.376,80.019 			"/>
			<polyline style="fill:#00649D;" points="57.417,80.019 69.295,95.855 69.295,83.978 81.172,87.937 75.233,76.06 89.09,74.08 
				73.254,70.121 84.074,65.172 71.274,62.202 81.172,54.284 67.793,55.772 69.295,42.406 57.417,56.264 			"/>
			<polyline style="fill:#034972;" points="56.675,82.658 62.66,95.774 65.815,87.937 74.956,93.216 70.386,77.379 81.05,74.74 
				68.862,69.461 77.189,62.862 67.339,58.903 74.956,48.345 65.815,50.325 63.107,40.427 56.675,50.985 			"/>
		</g>
	</g>
</g>
<g id="Layer_1">
</g>
</svg>
