<?xml version="1.0" encoding="iso-8859-1"?>
<!-- Generator: Adobe Illustrator 21.0.2, SVG Export Plug-In . SVG Version: 6.00 Build 0)  -->
<svg version="1.1" xmlns="http://www.w3.org/2000/svg" xmlns:xlink="http://www.w3.org/1999/xlink" x="0px" y="0px"
	 viewBox="0 0 98 98.05" style="enable-background:new 0 0 98 98.05;" xml:space="preserve">
<g id="t_x5F_g_x5F_N5">
	<g>
		<rect y="0" transform="matrix(-1 -1.224647e-16 1.224647e-16 -1 98 98)" style="fill:#CCCCCC;" width="98" height="98"/>
		
			<rect y="0.037" transform="matrix(-1 -1.224647e-16 1.224647e-16 -1 98 73.9002)" style="fill:#034972;" width="98" height="73.827"/>
		<g>
			<polyline style="fill:#00649D;" points="81.736,66.376 97.573,78.254 85.696,78.254 89.655,90.131 77.777,84.193 75.798,98.05 
				71.838,82.213 66.889,93.033 63.92,80.233 56.002,90.131 57.49,76.752 44.124,78.254 57.981,66.376 			"/>
			<polyline style="fill:#02314C;" points="57.981,62.417 42.145,74.295 54.022,74.295 50.063,86.172 61.94,80.233 63.92,94.09 
				67.879,78.254 72.828,89.074 75.798,76.274 83.716,86.172 82.228,72.793 95.594,74.295 81.736,62.417 			"/>
			<polyline style="fill:#034972;" points="55.342,61.675 42.226,67.415 50.063,70.44 44.784,79.206 60.621,74.823 63.26,85.05 
				68.539,73.362 75.138,81.348 79.097,71.901 89.655,79.206 87.675,70.44 97.573,67.843 87.015,61.675 			"/>
		</g>
		<g>
			<polyline style="fill:#02314C;" points="39.736,60.376 55.573,72.254 43.696,72.254 47.655,84.131 35.777,78.193 33.798,92.05 
				29.838,76.213 24.889,87.033 21.92,74.233 14.002,84.131 15.49,70.752 2.124,72.254 15.981,60.376 			"/>
			<polyline style="fill:#00649D;" points="15.981,56.417 0.145,68.295 12.022,68.295 8.063,80.172 19.94,74.233 21.92,88.09 
				25.879,72.254 30.828,83.074 33.798,70.274 41.716,80.172 40.228,66.793 53.594,68.295 39.736,56.417 			"/>
			<polyline style="fill:#034972;" points="13.342,55.675 0.226,61.66 8.063,64.815 2.784,73.956 18.621,69.386 21.26,80.05 
				26.539,67.862 33.138,76.189 37.097,66.339 47.655,73.956 45.675,64.815 55.573,62.107 45.015,55.675 			"/>
		</g>
	</g>
</g>
<g id="Layer_1">
</g>
</svg>
