<?xml version="1.0" encoding="iso-8859-1"?>
<!-- Generator: Adobe Illustrator 21.0.2, SVG Export Plug-In . SVG Version: 6.00 Build 0)  -->
<svg version="1.1" xmlns="http://www.w3.org/2000/svg" xmlns:xlink="http://www.w3.org/1999/xlink" x="0px" y="0px"
	 viewBox="0 0 98 98" style="enable-background:new 0 0 98 98;" xml:space="preserve">
<g id="t_x5F_g_x5F_N2">
	<g>
		<rect transform="matrix(-1 -1.224647e-16 1.224647e-16 -1 98 98)" style="fill:#CCCCCC;" width="98" height="98"/>
		
			<rect y="0.037" transform="matrix(-1 -1.224647e-16 1.224647e-16 -1 98 73.9002)" style="fill:#034972;" width="98" height="73.827"/>
		<g>
			<polyline style="fill:#02314C;" points="41.736,61.376 57.573,73.254 45.696,73.254 49.655,85.131 37.777,79.193 35.798,93.05 
				31.838,77.213 26.889,88.033 23.92,75.233 16.002,85.131 17.49,71.752 4.124,73.254 17.981,61.376 			"/>
			<polyline style="fill:#00649D;" points="17.981,57.417 2.145,69.295 14.022,69.295 10.063,81.172 21.94,75.233 23.92,89.09 
				27.879,73.254 32.828,84.074 35.798,71.274 43.716,81.172 42.228,67.793 55.594,69.295 41.736,57.417 			"/>
			<polyline style="fill:#034972;" points="15.342,56.675 2.226,62.66 10.063,65.815 4.784,74.956 20.621,70.386 23.26,81.05 
				28.539,68.862 35.138,77.189 39.097,67.339 49.655,74.956 47.675,65.815 57.573,63.107 47.015,56.675 			"/>
		</g>
		<g>
			<polyline style="fill:#00649D;" points="76.736,53.348 92.573,41.471 80.696,41.471 84.655,29.593 72.777,35.532 70.798,21.675 
				66.838,37.512 61.889,26.691 58.92,39.491 51.002,29.593 52.49,42.972 39.124,41.471 52.981,53.348 			"/>
			<g>
				<polyline style="fill:#02314C;" points="52.981,57.307 37.145,45.43 49.022,45.43 45.063,33.552 56.94,39.491 58.92,25.634 
					62.879,41.471 67.828,30.651 70.798,43.45 78.716,33.552 77.228,46.931 90.594,45.43 76.736,57.307 				"/>
				<polyline style="fill:#034972;" points="50.342,58.05 37.226,52.31 45.063,49.284 39.784,40.518 55.621,44.901 58.26,34.675 
					63.539,46.362 70.138,38.377 74.097,47.823 84.655,40.518 82.675,49.284 92.573,51.881 82.015,58.05 				"/>
			</g>
		</g>
	</g>
</g>
<g id="Layer_1">
</g>
</svg>
