<?xml version="1.0" encoding="iso-8859-1"?>
<!-- Generator: Adobe Illustrator 21.0.2, SVG Export Plug-In . SVG Version: 6.00 Build 0)  -->
<svg version="1.1" xmlns="http://www.w3.org/2000/svg" xmlns:xlink="http://www.w3.org/1999/xlink" x="0px" y="0px"
	 viewBox="0 0 98 98" style="enable-background:new 0 0 98 98;" xml:space="preserve">
<g id="t_x5F_g_x5F_N1">
	<g>
		<rect transform="matrix(-1 -1.224647e-16 1.224647e-16 -1 98 98)" style="fill:#CCCCCC;" width="98" height="98"/>
		
			<rect y="0.037" transform="matrix(-1 -1.224647e-16 1.224647e-16 -1 98 73.9002)" style="fill:#034972;" width="98" height="73.827"/>
		<g>
			<polyline style="fill:#00649D;" points="57.981,61.376 42.145,73.254 54.022,73.254 50.063,85.131 61.941,79.193 63.92,93.05 
				67.879,77.213 72.828,88.033 75.798,75.233 83.716,85.131 82.228,71.752 95.594,73.254 81.736,61.376 			"/>
			<polyline style="fill:#02314C;" points="81.736,57.417 97.573,69.295 85.696,69.295 89.655,81.172 77.777,75.233 75.798,89.09 
				71.839,73.254 66.89,84.074 63.92,71.274 56.002,81.172 57.49,67.793 44.124,69.295 57.981,57.417 			"/>
			<polyline style="fill:#034972;" points="84.376,56.675 97.492,62.415 89.655,65.44 94.934,74.206 79.097,69.823 76.457,80.05 
				71.179,68.362 64.58,76.348 60.621,66.901 50.063,74.206 52.043,65.44 42.145,62.843 52.702,56.675 			"/>
		</g>
		<g>
			<polyline style="fill:#02314C;" points="53.736,52.376 69.573,64.254 57.696,64.254 61.655,76.131 49.777,70.193 47.798,84.05 
				43.838,68.213 38.889,79.033 35.92,66.233 28.002,76.131 29.49,62.752 16.124,64.254 29.981,52.376 			"/>
			<polyline style="fill:#00649D;" points="29.981,48.417 14.145,60.295 26.022,60.295 22.063,72.172 33.94,66.233 35.92,80.09 
				39.879,64.254 44.828,75.074 47.798,62.274 55.716,72.172 54.228,58.793 67.594,60.295 53.736,48.417 			"/>
			<polyline style="fill:#034972;" points="27.342,47.675 14.226,53.66 22.063,56.815 16.784,65.956 32.621,61.386 35.26,72.05 
				40.539,59.862 47.138,68.189 51.097,58.339 61.655,65.956 59.675,56.815 69.573,54.107 59.015,47.675 			"/>
		</g>
		<path style="fill:#999999;" d="M26.926,91.738c0.085,1.851-7.465,3.711-9.356,2.87c-1.892-0.841-7.584-8.586-5.777-9.596
			S26.842,89.888,26.926,91.738z"/>
	</g>
</g>
<g id="Layer_1">
</g>
</svg>
