<?xml version="1.0" encoding="iso-8859-1"?>
<!-- Generator: Adobe Illustrator 21.0.2, SVG Export Plug-In . SVG Version: 6.00 Build 0)  -->
<svg version="1.1" xmlns="http://www.w3.org/2000/svg" xmlns:xlink="http://www.w3.org/1999/xlink" x="0px" y="0px"
	 viewBox="0 0 98.199 98.199" style="enable-background:new 0 0 98.199 98.199;" xml:space="preserve">
<g id="t_x5F_g_x5F_E1">
	<g>
		<rect x="0.1" y="0.1" transform="matrix(-0.002 -1 1 -0.002 0.0999 98.2993)" style="fill:#CCCCCC;" width="98" height="98"/>
		<polygon style="fill:#034972;" points="97.926,0 98.199,98 24.202,98.11 23.929,0.11 		"/>
		<g>
			<polyline style="fill:#02314C;" points="34.733,60.833 22.888,76.694 22.864,64.816 10.994,68.8 16.909,56.91 3.048,54.959 
				18.876,50.967 8.046,46.04 20.84,43.045 10.926,35.147 24.308,36.607 22.779,23.245 34.685,37.078 			"/>
			<polyline style="fill:#00649D;" points="38.644,37.07 26.734,21.257 26.758,33.135 14.873,29.2 20.836,41.065 6.983,43.073 
				22.827,47 12.017,51.971 24.823,54.914 14.941,62.853 28.317,61.338 26.843,74.706 38.692,60.825 			"/>
			<polyline style="fill:#034972;" points="39.381,34.429 33.368,21.325 30.229,29.169 21.078,23.908 25.681,39.736 15.022,42.397 
				27.22,47.651 18.907,54.267 28.765,58.206 21.169,68.779 30.306,66.781 33.034,76.673 39.445,66.102 			"/>
		</g>
	</g>
</g>
<g id="Layer_1">
</g>
</svg>
