<?xml version="1.0" encoding="iso-8859-1"?>
<!-- Generator: Adobe Illustrator 21.0.2, SVG Export Plug-In . SVG Version: 6.00 Build 0)  -->
<svg version="1.1" xmlns="http://www.w3.org/2000/svg" xmlns:xlink="http://www.w3.org/1999/xlink" x="0px" y="0px"
	 viewBox="0 0 98 98" style="enable-background:new 0 0 98 98;" xml:space="preserve">
<g id="t_x5F_p_x5F_NE1">
	<g>
		<g>
			<rect transform="matrix(-1 -1.224647e-16 1.224647e-16 -1 98 98)" style="fill:#034972;" width="98" height="98"/>
			<path style="fill:#CCCCCC;" d="M0,0h98v98H74c0,0-0.002-53.133-11-64C52.216,23.345,0,24,0,24V0z"/>
		</g>
		<g>
			<polyline style="fill:#00649D;" points="47.364,36.239 65.373,28.018 53.769,25.481 60.174,14.724 47.302,17.988 48.328,4.028 
				41.078,18.653 38.554,7.026 32.919,18.896 27.298,7.535 25.894,20.923 13.157,16.601 24.158,31.165 			"/>
			<polyline style="fill:#02314C;" points="23.312,35.032 10.378,20.046 21.981,22.583 20.651,10.134 30.985,18.473 35.879,5.359 
				36.364,21.676 43.51,12.162 43.677,25.301 53.527,17.323 49.215,30.075 62.593,31.463 46.519,40.107 			"/>
			<polyline style="fill:#034972;" points="20.575,35.194 8.988,26.785 17.29,25.503 14.006,15.812 28.541,23.477 33.304,14.05 
				35.964,26.595 44.116,20.204 45.966,30.278 57.841,25.397 54.034,33.537 59.583,33.07 47.797,40.627 			"/>
		</g>
		<path style="fill:#999999;" d="M78.687,9.757c0.97,0.97-2.232,5.758-3.687,6.243c-1.455,0.485-8.437-0.911-7.953-2.366
			S77.716,8.787,78.687,9.757z"/>
	</g>
</g>
<g id="Layer_1">
</g>
</svg>
