<?xml version="1.0" encoding="iso-8859-1"?>
<!-- Generator: Adobe Illustrator 21.0.2, SVG Export Plug-In . SVG Version: 6.00 Build 0)  -->
<svg version="1.1" xmlns="http://www.w3.org/2000/svg" xmlns:xlink="http://www.w3.org/1999/xlink" x="0px" y="0px"
	 viewBox="0 0 98 98" style="enable-background:new 0 0 98 98;" xml:space="preserve">
<g id="t_x5F_p_x5F_SW1">
	<g>
		<g>
			<rect style="fill:#034972;" width="98" height="98"/>
			<path style="fill:#CCCCCC;" d="M98,98H0V0h24c0,0,0.002,53.133,11,64c10.784,10.655,63,10,63,10V98z"/>
		</g>
		<g>
			<polyline style="fill:#00649D;" points="45.958,48.078 26.297,50.385 36.565,56.356 27.172,64.633 40.425,65.47 35.17,78.444 
				46.554,66.744 45.393,78.585 54.394,69.013 56.264,81.55 61.703,69.236 72.502,77.253 66.494,60.019 			"/>
			<polyline style="fill:#02314C;" points="68.484,56.597 76.204,74.825 65.936,68.855 63.388,81.113 56.105,70.008 47.428,80.992 
				51.967,65.312 42.249,72.178 46.116,59.62 34.296,64.196 42.307,53.378 29.998,47.958 47.948,44.655 			"/>
			<polyline style="fill:#034972;" points="71.139,57.282 79.591,68.837 71.296,67.513 71.453,77.744 59.966,65.995 52.543,73.508 
				53.855,60.751 44.137,64.337 45.462,54.181 32.664,55.189 38.781,48.606 33.356,47.35 46.89,43.769 			"/>
		</g>
		<path style="fill:#999999;" d="M13.541,93.609c-1.073,0.856-2.662,1.165-2.981-0.335c-0.319-1.5,1.848-8.283,3.24-7.639
			C15.191,86.279,14.613,92.753,13.541,93.609z"/>
		<path style="fill:#999999;" d="M10.18,50.955c1.848-0.126,3.878,7.379,3.08,9.289c-0.798,1.91-8.413,7.775-9.464,5.991
			S8.332,51.081,10.18,50.955z"/>
	</g>
</g>
<g id="Layer_1">
</g>
</svg>
