<?xml version="1.0" encoding="iso-8859-1"?>
<!-- Generator: Adobe Illustrator 21.0.2, SVG Export Plug-In . SVG Version: 6.00 Build 0)  -->
<svg version="1.1" xmlns="http://www.w3.org/2000/svg" xmlns:xlink="http://www.w3.org/1999/xlink" x="0px" y="0px"
	 viewBox="0 0 98 98" style="enable-background:new 0 0 98 98;" xml:space="preserve">
<g id="t_x5F_p_x5F_SE1">
	<g>
		<g>
			<rect transform="matrix(6.123234e-17 -1 1 6.123234e-17 0 98)" style="fill:#034972;" width="98" height="98"/>
			<path style="fill:#CCCCCC;" d="M98,0v98H0V74c0,0,53.133-0.002,64-11C74.655,52.216,74,0,74,0H98z"/>
		</g>
		<g>
			<polyline style="fill:#00649D;" points="45.927,54.004 43.128,73.601 51.527,65.202 57.126,76.4 61.325,63.802 72.523,72.201 
				64.125,58.203 75.275,62.355 68.324,51.204 80.922,52.604 70.409,44.196 80.922,35.807 62.725,37.206 			"/>
			<polyline style="fill:#02314C;" points="59.925,34.407 79.522,31.607 71.124,40.006 82.322,45.605 69.724,49.804 78.122,61.003 
				64.125,52.604 68.276,63.755 57.126,56.803 58.526,69.401 50.117,58.889 41.728,69.401 43.128,51.204 			"/>
			<polyline style="fill:#034972;" points="61.267,32.016 74.6,26.8 71.198,34.481 81.129,36.947 66.831,45.046 72.196,54.143 
				60.199,49.612 61.18,59.924 51.701,56.044 49.4,68.675 44.602,61.077 42,66 42,52 			"/>
		</g>
	</g>
</g>
<g id="Layer_1">
</g>
</svg>
