<?xml version="1.0" encoding="iso-8859-1"?>
<!-- Generator: Adobe Illustrator 21.0.2, SVG Export Plug-In . SVG Version: 6.00 Build 0)  -->
<svg version="1.1" xmlns="http://www.w3.org/2000/svg" xmlns:xlink="http://www.w3.org/1999/xlink" x="0px" y="0px"
	 viewBox="0 0 98 98" style="enable-background:new 0 0 98 98;" xml:space="preserve">
<g id="t_x5F_p_x5F_NW1">
	<g>
		<g>
			<rect transform="matrix(-1.836970e-16 1 -1 -1.836970e-16 98 7.105427e-15)" style="fill:#034972;" width="98" height="98"/>
			<path style="fill:#CCCCCC;" d="M0,98V0h98v24c0,0-53.133,0.002-64,11C23.345,45.784,24,98,24,98H0z"/>
		</g>
		<g>
			<polyline style="fill:#00649D;" points="56.073,35.996 58.872,16.399 50.473,24.798 44.874,13.6 40.675,26.198 29.477,17.799 
				37.875,31.797 26.725,27.645 33.676,38.796 21.078,37.396 31.591,45.804 21.078,54.193 39.275,52.794 			"/>
			<polyline style="fill:#02314C;" points="42.075,55.593 22.478,58.393 30.876,49.994 19.678,44.395 32.276,40.196 23.878,28.997 
				37.875,37.396 33.724,26.245 44.874,33.197 43.474,20.599 51.883,31.111 60.272,20.599 58.872,38.796 			"/>
			<polyline style="fill:#034972;" points="40.733,57.984 27.4,63.2 30.802,55.519 20.871,53.053 35.169,44.954 29.804,35.857 
				41.801,40.388 40.82,30.076 50.299,33.956 52.6,21.325 57.398,28.923 60,24 60,38 			"/>
		</g>
	</g>
</g>
<g id="Layer_1">
</g>
</svg>
