<?xml version="1.0" encoding="iso-8859-1"?>
<!-- Generator: Adobe Illustrator 21.0.2, SVG Export Plug-In . SVG Version: 6.00 Build 0)  -->
<svg version="1.1" xmlns="http://www.w3.org/2000/svg" xmlns:xlink="http://www.w3.org/1999/xlink" x="0px" y="0px"
	 viewBox="0 0 185.647 223" style="enable-background:new 0 0 185.647 223;" xml:space="preserve">
<g id="tree1">
	<g>
		
			<ellipse transform="matrix(0.5 -0.866 0.866 0.5 -91.647 118.2532)" style="fill:#02314C;" cx="56.587" cy="138.495" rx="44.817" ry="59.981"/>
		<ellipse style="fill:#02314C;" cx="95.675" cy="63.688" rx="52.568" ry="63.688"/>
		<ellipse style="fill:#02314C;" cx="135.101" cy="127.712" rx="50.546" ry="61.329"/>
		<path d="M102.42,223h-2.913c-2.224,0-4.044-1.82-4.044-4.044V85.254c0-2.224,1.82-4.044,4.044-4.044h2.913
			c2.224,0,4.044,1.82,4.044,4.044v133.703C106.464,221.18,104.644,223,102.42,223z"/>
		<path d="M132.42,148.561h-1.913c-2.224,0-4.044-1.82-4.044-4.044v-22.914c0-2.224,1.82-4.044,4.044-4.044h1.913
			c2.224,0,4.044,1.82,4.044,4.044v22.914C136.464,146.741,134.644,148.561,132.42,148.561z"/>
		<path d="M133.676,148.587l-28.474,13.876c-1.833,0.893-4.063,0.124-4.956-1.708l-1.266-2.598
			c-0.893-1.833-0.124-4.063,1.708-4.956l28.474-13.876c1.833-0.893,4.063-0.124,4.956,1.708l1.266,2.598
			C136.277,145.464,135.509,147.694,133.676,148.587z"/>
	</g>
</g>
<g id="Layer_1">
</g>
</svg>
