<?xml version="1.0" encoding="iso-8859-1"?>
<!-- Generator: Adobe Illustrator 21.0.2, SVG Export Plug-In . SVG Version: 6.00 Build 0)  -->
<svg version="1.1" xmlns="http://www.w3.org/2000/svg" xmlns:xlink="http://www.w3.org/1999/xlink" x="0px" y="0px"
	 viewBox="0 0 187.829 302" style="enable-background:new 0 0 187.829 302;" xml:space="preserve">
<g id="tree2">
	<g>
		<g>
			<path style="fill:#02314C;" d="M64.577,157.571c10.364,20.047,38.241,23.741,62.265,8.251s35.098-44.299,24.734-64.346
				c-10.364-20.047-38.241-23.741-62.265-8.251S54.214,137.523,64.577,157.571z"/>
			<ellipse style="fill:#02314C;" cx="75.344" cy="59.562" rx="44.021" ry="59.562"/>
			<ellipse style="fill:#02314C;" cx="42.328" cy="119.438" rx="42.328" ry="57.356"/>
		</g>
		<g>
			<ellipse style="fill:#02314C;" cx="137.463" cy="196.657" rx="31.133" ry="43.657"/>
			<ellipse style="fill:#02314C;" cx="165.414" cy="209.425" rx="22.415" ry="34.575"/>
		</g>
		<path d="M96.42,302h-2.913c-2.224,0-4.044-1.82-4.044-4.044V109.044c0-2.224,1.82-4.044,4.044-4.044h2.913
			c2.224,0,4.044,1.82,4.044,4.044v188.913C100.464,300.18,98.644,302,96.42,302z"/>
		<path d="M145.42,219.012h-1.913c-2.224,0-4.044-1.82-4.044-4.044v-22.914c0-2.224,1.82-4.044,4.044-4.044h1.913
			c2.224,0,4.044,1.82,4.044,4.044v22.914C149.464,217.192,147.644,219.012,145.42,219.012z"/>
		<path d="M147.219,218.063l-48.017,23.399c-1.833,0.893-4.063,0.124-4.956-1.708l-1.266-2.598
			c-0.893-1.833-0.124-4.063,1.708-4.956l48.017-23.399c1.833-0.893,4.063-0.124,4.956,1.708l1.266,2.598
			C149.82,214.94,149.052,217.17,147.219,218.063z"/>
		<path d="M45.507,117.01h1.913c2.224,0,4.044-1.82,4.044-4.044V90.052c0-2.224-1.82-4.044-4.044-4.044h-1.913
			c-2.224,0-4.044,1.82-4.044,4.044v22.914C41.464,115.19,43.283,117.01,45.507,117.01z"/>
		<path d="M43.708,116.062l48.017,23.399c1.833,0.893,4.063,0.124,4.956-1.708l1.266-2.598c0.893-1.833,0.124-4.063-1.708-4.956
			l-48.017-23.399c-1.833-0.893-4.063-0.124-4.956,1.708L42,111.106C41.107,112.939,41.876,115.169,43.708,116.062z"/>
	</g>
</g>
<g id="Layer_1">
</g>
</svg>
