<?xml version="1.0" encoding="iso-8859-1"?>
<!-- Generator: Adobe Illustrator 21.0.2, SVG Export Plug-In . SVG Version: 6.00 Build 0)  -->
<svg version="1.1" xmlns="http://www.w3.org/2000/svg" xmlns:xlink="http://www.w3.org/1999/xlink" x="0px" y="0px"
	 viewBox="0 0 191.365 274.673" style="enable-background:new 0 0 191.365 274.673;" xml:space="preserve">
<g id="tree0">
	<g>
		<g>
			<ellipse style="fill:#02314C;" cx="73.103" cy="102.509" rx="73.103" ry="102.509"/>
			<ellipse style="fill:#02314C;" cx="138.733" cy="132.488" rx="52.632" ry="81.185"/>
		</g>
		<path d="M98.956,274.673h-2.913c-2.224,0-4.044-1.82-4.044-4.044V104.717c0-2.224,1.82-4.044,4.044-4.044h2.913
			c2.224,0,4.044,1.82,4.044,4.044V270.63C102.999,272.854,101.18,274.673,98.956,274.673z"/>
		<path d="M147.956,191.685h-1.913c-2.224,0-4.044-1.82-4.044-4.044v-22.914c0-2.224,1.82-4.044,4.044-4.044h1.913
			c2.224,0,4.044,1.82,4.044,4.044v22.914C152,189.865,150.18,191.685,147.956,191.685z"/>
		<path d="M149.755,190.737l-48.017,23.399c-1.833,0.893-4.063,0.124-4.956-1.708l-1.266-2.598
			c-0.893-1.833-0.124-4.063,1.708-4.956l48.017-23.399c1.833-0.893,4.063-0.124,4.956,1.708l1.266,2.598
			C152.357,187.613,151.588,189.844,149.755,190.737z"/>
		<path d="M51.044,141.695h1.913c2.224,0,4.044-1.82,4.044-4.044v-22.914c0-2.224-1.82-4.044-4.044-4.044h-1.913
			c-2.224,0-4.044,1.82-4.044,4.044v22.914C47,139.876,48.82,141.695,51.044,141.695z"/>
		<path d="M47.245,141.735l48.017,23.399c1.833,0.893,4.063,0.124,4.956-1.708l1.266-2.598c0.893-1.833,0.124-4.063-1.708-4.956
			l-48.017-23.399c-1.833-0.893-4.063-0.124-4.956,1.708l-1.266,2.598C44.643,138.612,45.412,140.842,47.245,141.735z"/>
	</g>
</g>
<g id="Layer_1">
</g>
</svg>
